<?xml version="1.0" encoding="UTF-8" ?>
<!DOCTYPE svg PUBLIC "-//W3C//DTD SVG 1.1//EN" "http://www.w3.org/Graphics/SVG/1.1/DTD/svg11.dtd">
<svg width="1400pt" height="600pt" viewBox="0 0 1400 600" version="1.1" xmlns="http://www.w3.org/2000/svg">
<g id="#43a2a8ff">
<path fill="#43a2a8" opacity="1.00" d=" M 0.00 0.00 L 1400.00 0.00 L 1400.00 600.00 L 0.00 600.00 L 0.00 0.00 M 652.39 96.49 C 647.28 97.78 643.42 102.64 643.68 107.98 C 643.59 157.65 643.70 207.33 643.63 257.00 C 643.68 260.92 643.32 264.92 644.25 268.77 C 645.91 274.00 651.69 277.04 657.00 276.37 C 663.43 276.49 668.59 270.30 668.15 264.05 C 668.21 212.69 668.13 161.33 668.18 109.97 C 668.13 106.89 667.98 103.55 666.03 100.99 C 663.12 96.66 657.28 95.08 652.39 96.49 M 747.42 96.56 C 744.02 97.69 740.92 100.18 739.69 103.61 C 738.85 105.97 738.86 108.52 738.79 110.99 C 738.82 161.33 738.79 211.67 738.81 262.01 C 738.79 265.83 739.17 270.08 742.21 272.78 C 745.52 276.63 751.17 277.04 755.80 275.81 C 759.97 274.60 762.83 270.50 763.34 266.29 C 763.93 261.88 763.62 257.43 763.66 253.00 C 763.66 205.34 763.65 157.68 763.67 110.02 C 763.66 106.35 762.96 102.42 760.28 99.72 C 757.17 96.11 751.81 95.37 747.42 96.56 M 985.45 101.49 C 981.87 102.99 978.91 106.28 978.39 110.20 C 977.86 114.11 978.12 118.07 978.09 122.00 C 978.10 181.67 978.09 241.34 978.10 301.00 C 978.04 310.03 979.35 319.11 982.36 327.64 C 986.75 339.61 995.38 350.58 1007.35 355.61 C 1014.44 358.81 1022.41 358.55 1030.01 358.30 C 1035.23 358.39 1040.47 354.94 1041.93 349.84 C 1043.29 344.40 1041.70 337.32 1036.14 334.90 C 1029.82 332.61 1022.63 335.53 1016.49 332.49 C 1009.87 328.89 1006.15 321.76 1004.19 314.75 C 1002.54 308.65 1002.78 302.26 1002.66 296.00 C 1002.70 237.67 1002.65 179.34 1002.68 121.01 C 1002.66 117.46 1002.90 113.89 1002.50 110.35 C 1002.01 105.85 998.42 101.82 993.95 100.98 C 991.13 100.46 988.13 100.45 985.45 101.49 M 1079.34 101.30 C 1075.44 102.43 1072.60 105.92 1071.79 109.82 C 1070.98 113.83 1071.39 117.94 1071.34 122.00 C 1071.35 180.33 1071.35 238.66 1071.34 297.00 C 1070.90 309.51 1072.81 322.35 1078.29 333.70 C 1083.48 343.70 1091.87 352.66 1102.75 356.35 C 1109.51 358.91 1116.90 358.52 1124.00 358.27 C 1128.92 358.16 1133.30 354.69 1135.17 350.25 C 1136.91 345.05 1135.19 338.56 1130.54 335.44 C 1124.44 332.32 1117.23 335.38 1110.97 332.95 C 1105.31 330.54 1101.48 325.28 1099.17 319.76 C 1095.95 312.64 1096.09 304.65 1096.03 297.00 C 1096.05 237.34 1095.99 177.67 1096.06 118.01 C 1095.95 113.71 1096.70 108.80 1093.78 105.20 C 1090.62 100.68 1084.31 99.76 1079.34 101.30 M 901.33 108.25 C 894.08 110.27 888.67 117.43 889.02 124.99 C 888.66 132.49 893.68 139.65 900.67 142.20 C 907.40 144.47 915.48 142.60 920.22 137.21 C 924.47 132.62 925.74 125.79 924.11 119.84 C 922.34 113.86 917.13 108.92 910.92 107.89 C 907.74 107.38 904.44 107.42 901.33 108.25 M 574.38 168.43 C 570.09 169.64 566.49 173.51 566.13 178.03 C 565.76 181.67 565.96 185.34 565.95 189.00 C 565.97 232.34 565.92 275.69 565.97 319.04 C 565.87 330.20 571.35 341.08 579.90 348.14 C 586.64 353.63 595.21 357.02 603.95 356.98 C 670.31 356.99 736.68 356.99 803.04 356.98 C 819.22 357.11 834.53 345.59 839.23 330.17 C 841.49 324.03 840.99 317.41 840.99 311.00 C 841.00 270.33 840.98 229.67 841.00 189.00 C 840.94 185.07 841.29 181.10 840.69 177.20 C 839.70 171.82 834.44 167.73 828.99 168.02 C 823.50 167.83 818.49 172.38 817.69 177.72 C 817.03 181.78 817.35 185.91 817.32 190.01 C 817.33 232.68 817.31 275.36 817.33 318.04 C 817.75 326.26 810.27 333.82 802.01 333.35 C 739.68 333.33 677.34 333.34 615.00 333.34 C 610.69 333.29 606.35 333.61 602.06 333.10 C 597.80 332.57 594.14 329.72 591.78 326.25 C 589.58 322.96 589.38 318.86 589.31 315.03 C 589.39 272.35 589.30 229.68 589.36 187.00 C 589.29 183.13 589.73 179.15 588.64 175.39 C 586.52 169.90 580.05 166.66 574.38 168.43 M 116.44 176.65 C 110.29 177.95 104.22 180.28 99.32 184.32 C 90.29 191.68 84.10 202.26 81.50 213.58 C 79.01 222.84 79.32 232.50 79.33 242.00 C 79.33 274.33 79.33 306.66 79.33 338.99 C 79.39 342.77 78.95 346.62 79.70 350.35 C 80.93 354.46 84.67 357.86 89.01 358.27 C 92.95 358.79 97.43 358.35 100.34 355.36 C 103.89 351.95 103.76 346.60 103.95 342.05 C 103.91 305.70 103.94 269.36 103.93 233.01 C 103.91 228.22 104.03 223.33 105.58 218.75 C 107.51 212.23 111.11 205.69 117.27 202.34 C 123.18 199.20 130.07 201.67 136.30 200.21 C 143.08 197.66 145.03 188.84 142.19 182.73 C 139.85 178.41 134.82 176.23 130.08 176.04 C 125.53 175.84 120.93 175.84 116.44 176.65 M 903.37 178.43 C 899.04 179.55 895.38 183.28 894.70 187.76 C 894.02 192.14 894.39 196.59 894.34 201.00 C 894.34 248.99 894.36 296.99 894.32 344.98 C 894.25 348.86 895.35 352.98 898.42 355.58 C 901.68 358.75 906.68 358.82 910.90 358.07 C 916.21 356.90 919.11 351.11 919.18 346.05 C 919.25 295.04 919.14 244.01 919.24 192.99 C 919.22 189.35 919.14 185.32 916.62 182.41 C 913.60 178.40 908.06 177.26 903.37 178.43 M 1156.36 178.39 C 1152.42 179.64 1148.37 182.63 1147.97 187.05 C 1147.31 191.29 1149.17 195.31 1151.16 198.92 C 1154.17 204.37 1156.44 210.17 1159.26 215.71 C 1179.49 257.54 1199.64 299.40 1219.88 341.22 C 1220.89 343.42 1222.20 345.55 1222.64 347.96 C 1222.38 349.14 1221.89 350.26 1221.44 351.38 C 1210.88 374.53 1200.53 397.78 1190.02 420.95 C 1188.38 424.91 1188.27 430.21 1191.71 433.28 C 1195.22 436.36 1200.21 438.01 1204.84 437.07 C 1208.66 436.14 1210.54 432.31 1212.08 429.05 C 1219.67 412.05 1227.45 395.13 1235.13 378.16 C 1262.23 318.87 1289.15 259.50 1316.14 200.17 C 1318.01 196.02 1320.65 191.79 1320.18 187.06 C 1319.76 183.45 1316.77 180.82 1313.63 179.41 C 1310.02 177.76 1305.54 176.98 1301.91 178.92 C 1298.36 180.92 1297.00 184.99 1295.40 188.48 C 1276.94 229.00 1258.62 269.61 1240.18 310.14 C 1238.69 313.32 1237.47 316.63 1235.75 319.68 C 1235.43 319.63 1234.79 319.51 1234.47 319.45 C 1213.24 274.74 1191.92 230.04 1170.78 185.26 C 1169.71 183.12 1168.50 180.91 1166.49 179.51 C 1163.59 177.40 1159.67 177.46 1156.36 178.39 M 196.43 179.46 C 191.25 180.66 187.23 185.62 187.18 190.95 C 186.86 197.63 187.16 204.32 187.06 211.00 C 187.19 235.69 186.79 260.39 187.30 285.09 C 188.37 300.04 193.15 314.86 201.74 327.23 C 211.03 340.83 224.83 351.47 240.66 356.24 C 254.41 360.05 269.38 359.83 282.78 354.74 C 305.02 346.76 321.82 326.93 328.48 304.55 C 330.94 296.96 331.81 288.96 332.07 281.01 C 332.04 254.34 332.06 227.67 332.06 201.00 C 332.02 197.01 332.29 193.01 331.87 189.04 C 331.44 185.08 328.37 181.91 324.99 180.10 C 320.60 178.23 315.04 179.20 311.77 182.77 C 309.02 185.40 308.32 189.36 308.31 193.01 C 308.34 222.00 308.33 250.99 308.32 279.98 C 308.52 294.84 302.86 309.81 292.61 320.61 C 285.17 328.52 274.90 333.91 264.03 334.91 C 255.72 335.56 247.06 334.39 239.70 330.29 C 227.83 324.12 218.84 313.01 214.53 300.41 C 213.08 296.08 211.53 291.70 211.24 287.11 C 210.98 283.41 211.04 279.70 211.02 276.00 C 211.05 248.32 211.00 220.63 211.05 192.95 C 211.03 189.92 210.80 186.64 208.78 184.21 C 206.09 180.31 200.97 178.72 196.43 179.46 M 438.42 179.58 C 420.66 181.62 404.20 191.18 392.80 204.82 C 380.32 219.53 373.89 238.83 373.71 258.01 C 373.69 287.01 373.74 316.02 373.69 345.02 C 373.79 347.67 373.74 350.53 375.17 352.89 C 377.26 356.28 380.95 358.84 385.02 358.95 C 389.40 359.21 393.65 356.67 395.90 352.98 C 397.35 350.59 397.31 347.70 397.38 345.01 C 397.27 317.66 397.39 290.32 397.33 262.98 C 397.33 254.01 397.91 244.80 401.39 236.42 C 405.76 225.20 413.47 215.05 424.02 209.03 C 435.52 202.05 450.39 201.00 462.77 206.24 C 468.73 208.37 473.76 212.38 478.24 216.76 C 486.60 224.85 491.75 235.84 493.89 247.19 C 495.30 254.03 494.89 261.06 494.96 268.00 C 494.99 294.34 494.88 320.69 495.00 347.03 C 494.84 353.08 499.95 358.76 506.04 358.95 C 512.64 359.63 518.79 353.52 518.68 347.01 C 518.64 318.35 518.66 289.67 518.67 261.00 C 519.62 235.10 507.96 208.56 486.98 193.00 C 473.29 182.56 455.55 177.52 438.42 179.58 M 579.41 409.44 C 575.05 411.26 573.35 417.14 575.94 421.07 C 578.49 425.37 585.13 426.07 588.70 422.69 C 591.80 419.93 592.17 414.67 589.39 411.56 C 587.06 408.65 582.73 408.10 579.41 409.44 M 997.38 409.37 C 992.62 410.92 991.32 417.25 993.75 421.23 C 996.48 425.33 1003.07 426.12 1006.58 422.59 C 1009.20 420.41 1009.40 416.50 1008.50 413.45 C 1006.63 409.45 1001.39 407.69 997.38 409.37 M 117.30 410.11 C 117.37 432.30 117.37 454.50 117.30 476.69 C 122.10 476.79 126.91 476.79 131.71 476.71 C 131.75 454.48 131.69 432.24 131.74 410.01 C 126.95 409.39 122.08 409.38 117.30 410.11 M 362.28 410.23 C 362.24 417.78 362.59 425.33 362.19 432.87 C 358.93 431.25 355.70 429.31 352.01 428.95 C 343.12 427.86 333.55 432.24 329.14 440.16 C 325.56 446.27 324.91 453.82 326.57 460.64 C 329.09 470.24 338.16 477.42 347.97 478.23 C 357.03 479.19 367.28 476.46 372.68 468.62 C 375.95 464.52 376.75 459.14 376.73 454.04 C 376.73 439.42 376.69 424.79 376.76 410.17 C 371.94 409.84 367.10 409.84 362.28 410.23 M 661.30 410.11 C 661.37 432.30 661.38 454.50 661.29 476.70 C 666.10 476.80 670.90 476.79 675.71 476.70 C 675.74 454.48 675.70 432.24 675.74 410.02 C 670.94 409.40 666.08 409.38 661.30 410.11 M 1070.90 420.92 C 1070.77 423.93 1070.59 426.95 1070.68 429.97 C 1068.56 430.21 1066.45 430.42 1064.33 430.40 C 1064.22 433.89 1064.22 437.39 1064.34 440.88 C 1066.44 441.09 1068.55 441.30 1070.68 441.46 C 1070.91 449.31 1070.22 457.18 1070.99 465.01 C 1071.41 470.83 1075.68 476.13 1081.23 477.84 C 1085.90 478.95 1090.78 478.31 1095.43 477.36 C 1095.81 473.36 1095.79 469.35 1095.66 465.35 C 1093.26 465.56 1090.82 465.98 1088.43 465.61 C 1085.89 464.50 1085.01 461.60 1085.03 459.04 C 1084.90 453.13 1084.86 447.20 1085.20 441.29 C 1088.50 441.38 1091.80 441.28 1095.10 441.11 C 1095.48 437.69 1095.48 434.24 1095.10 430.83 C 1091.80 430.67 1088.51 430.59 1085.23 430.71 C 1085.09 427.44 1084.92 424.17 1084.90 420.91 C 1080.23 420.47 1075.55 420.48 1070.90 420.92 M 154.36 431.41 C 146.27 435.26 140.80 443.97 141.01 452.95 C 140.46 461.09 143.88 469.58 150.47 474.52 C 155.68 478.45 162.65 479.12 168.89 477.91 C 172.78 477.12 175.81 474.41 178.95 472.19 C 179.12 473.67 179.26 475.16 179.41 476.66 C 183.84 476.83 188.26 476.81 192.69 476.68 C 192.74 471.12 192.58 465.55 192.68 459.99 C 192.73 454.41 192.73 448.62 190.51 443.40 C 187.05 435.30 178.78 429.69 170.06 428.97 C 164.75 428.49 159.16 428.91 154.36 431.41 M 244.01 434.99 C 243.85 433.43 243.71 431.87 243.58 430.32 C 239.13 430.29 234.67 430.28 230.22 430.28 C 229.77 436.18 230.06 442.09 230.00 448.00 C 230.11 457.58 229.76 467.18 230.16 476.76 C 234.77 476.79 239.38 476.78 243.99 476.73 C 244.72 470.84 244.21 464.91 244.30 459.00 C 244.36 454.80 243.90 450.43 245.37 446.41 C 246.65 442.86 250.75 440.31 254.49 441.49 C 256.19 442.51 257.59 443.95 259.25 445.04 C 261.13 445.76 263.18 445.17 265.13 445.14 C 265.41 440.84 265.78 436.48 265.05 432.21 C 262.74 428.74 257.91 428.49 254.16 428.99 C 250.02 429.38 246.96 432.39 244.01 434.99 M 276.30 435.28 C 270.73 440.17 268.22 447.74 268.75 455.03 C 268.68 461.87 272.22 468.31 277.22 472.81 C 282.08 476.98 288.70 478.42 294.97 478.41 C 302.10 478.41 309.60 475.87 314.28 470.29 C 316.33 468.15 315.71 465.00 315.77 462.32 C 312.09 462.38 308.29 461.81 304.69 462.76 C 302.15 464.54 299.99 467.23 296.70 467.57 C 291.12 468.93 285.12 464.94 284.05 459.34 C 295.61 459.03 307.21 459.85 318.75 458.99 C 319.15 453.63 319.32 447.99 317.04 442.98 C 314.15 435.91 307.51 430.46 299.95 429.21 C 291.73 427.79 282.54 429.47 276.30 435.28 M 418.39 432.39 C 410.53 436.62 408.95 449.27 416.38 454.67 C 422.59 458.88 430.49 458.22 437.55 459.58 C 440.21 460.08 442.44 462.97 440.78 465.56 C 438.17 468.98 433.10 468.85 429.35 467.76 C 426.75 467.14 425.51 464.63 424.33 462.51 C 420.30 462.03 416.25 462.19 412.21 462.34 C 412.33 465.02 411.82 468.09 413.68 470.33 C 417.98 475.82 425.19 478.44 432.03 478.42 C 438.79 478.56 446.17 477.04 451.09 472.08 C 455.71 467.44 456.82 459.52 452.88 454.13 C 449.65 449.86 444.03 448.91 439.11 447.93 C 434.46 446.90 429.16 447.73 425.19 444.63 C 425.39 443.23 425.29 441.58 426.54 440.62 C 429.07 438.34 432.83 438.56 435.98 439.00 C 438.54 439.29 440.06 441.65 442.22 442.78 C 445.74 443.39 449.33 443.01 452.87 442.80 C 452.77 439.90 453.19 436.36 450.55 434.39 C 441.67 427.17 428.20 426.94 418.39 432.39 M 479.37 429.60 C 471.99 431.36 465.62 436.87 462.92 443.97 C 459.38 453.17 461.04 464.70 468.38 471.61 C 475.61 478.50 486.75 479.78 496.06 477.11 C 505.67 474.43 512.78 464.98 512.78 455.02 C 513.60 444.74 507.41 434.06 497.52 430.60 C 491.67 428.91 485.35 428.13 479.37 429.60 M 525.19 437.19 C 519.48 443.82 518.51 453.40 520.53 461.65 C 523.29 470.92 532.30 477.97 542.00 478.33 C 550.01 478.95 559.13 476.91 564.36 470.36 C 566.89 467.47 566.54 463.45 566.17 459.92 C 562.85 459.67 559.48 459.26 556.18 459.87 C 553.63 461.75 552.14 465.15 548.82 465.89 C 545.86 466.62 542.50 466.71 539.76 465.19 C 532.23 460.60 531.48 447.95 538.79 442.79 C 541.84 440.53 546.07 440.24 549.59 441.49 C 552.38 442.57 553.74 445.52 556.16 447.12 C 559.47 447.75 562.86 447.33 566.20 447.08 C 566.34 444.58 566.79 441.89 565.53 439.59 C 562.78 434.29 557.19 431.09 551.63 429.49 C 542.34 427.25 531.53 429.75 525.19 437.19 M 616.72 429.91 C 611.09 431.92 605.98 435.73 602.94 440.93 C 597.33 451.39 598.83 465.95 608.24 473.76 C 613.61 478.33 621.18 479.23 627.91 477.89 C 631.77 477.09 634.69 474.25 637.81 472.05 C 637.97 473.60 638.13 475.16 638.28 476.72 C 642.52 476.82 646.76 476.80 651.00 476.73 C 651.65 471.84 651.25 466.91 651.34 462.00 C 651.35 457.44 651.52 452.83 650.67 448.33 C 649.70 443.20 647.04 438.35 643.04 434.97 C 635.78 429.06 625.64 427.34 616.72 429.91 M 720.15 435.15 C 709.97 444.24 710.07 461.91 719.52 471.48 C 725.12 476.99 733.33 479.02 741.00 478.31 C 747.48 478.04 754.00 475.26 758.10 470.13 C 759.96 467.98 759.72 465.00 759.82 462.35 C 756.08 462.36 752.25 461.86 748.59 462.71 C 747.26 463.64 746.13 464.80 744.86 465.80 C 739.14 470.32 728.78 466.94 727.98 459.34 C 739.54 459.00 751.15 459.93 762.69 458.91 C 762.80 454.86 763.02 450.74 762.11 446.76 C 760.37 439.61 755.19 433.18 748.18 430.65 C 738.93 427.04 727.69 428.54 720.15 435.15 M 771.87 435.88 C 768.88 439.35 768.44 444.32 769.50 448.62 C 770.53 452.12 773.47 454.78 776.72 456.26 C 782.61 458.81 789.21 458.25 795.36 459.74 C 797.12 460.26 799.57 461.67 798.86 463.87 C 798.49 466.24 796.18 467.80 793.94 468.17 C 790.95 468.64 787.65 468.52 784.99 466.95 C 783.55 465.71 782.52 464.08 781.47 462.52 C 777.72 462.07 773.96 462.16 770.21 462.31 C 770.28 465.28 769.67 468.75 771.85 471.17 C 777.24 477.44 786.13 479.01 794.00 478.31 C 800.90 478.00 808.10 474.53 811.28 468.15 C 813.97 463.14 813.31 455.99 808.65 452.34 C 803.65 448.43 797.08 447.85 790.99 447.23 C 788.28 446.85 785.15 446.78 783.18 444.62 C 782.52 443.12 782.95 441.26 784.35 440.36 C 787.10 438.38 790.77 438.51 793.97 439.02 C 796.46 439.47 797.81 442.09 800.17 442.83 C 803.47 443.35 806.84 443.02 810.17 442.91 C 810.22 441.01 810.63 439.05 810.02 437.21 C 809.09 434.87 807.01 433.22 804.83 432.13 C 799.01 429.31 792.38 428.10 785.96 428.92 C 780.64 429.42 775.38 431.80 771.87 435.88 M 823.04 439.05 C 818.53 445.19 817.86 453.39 819.54 460.63 C 821.54 469.05 828.68 475.84 837.06 477.79 C 846.08 479.45 856.63 478.34 863.09 471.15 C 866.17 468.24 865.50 463.71 865.20 459.92 C 861.86 459.57 858.50 459.45 855.16 459.85 C 853.56 461.66 852.03 463.61 850.03 465.02 C 845.21 467.68 838.30 466.50 835.30 461.66 C 832.51 456.80 831.99 450.13 835.43 445.45 C 838.43 441.21 844.57 439.47 849.28 441.78 C 851.64 443.05 853.14 445.40 855.21 447.05 C 858.50 447.80 861.91 447.30 865.24 447.09 C 865.39 444.30 865.87 441.25 864.29 438.76 C 861.46 434.04 856.42 431.11 851.22 429.71 C 841.17 426.80 829.05 430.19 823.04 439.05 M 873.20 446.13 C 870.69 455.19 872.69 465.78 879.40 472.59 C 884.71 477.80 892.78 479.34 899.92 477.96 C 903.96 477.17 907.06 474.25 910.49 472.19 C 910.69 473.68 910.88 475.18 911.07 476.69 C 915.28 476.82 919.49 476.81 923.71 476.70 C 923.83 470.79 923.66 464.89 923.74 458.98 C 923.70 453.91 923.77 448.67 922.01 443.84 C 919.70 438.30 915.20 433.72 909.72 431.27 C 904.24 428.68 897.95 428.36 892.04 429.25 C 883.25 430.79 875.67 437.55 873.20 446.13 M 942.60 433.62 C 938.53 436.33 935.87 440.68 934.34 445.24 C 932.94 449.34 933.35 453.74 933.33 458.00 C 933.37 471.23 933.34 484.46 933.31 497.69 C 938.10 497.70 942.90 497.70 947.69 497.70 C 947.93 489.84 947.40 481.98 947.94 474.13 C 951.46 475.87 954.90 478.22 958.96 478.35 C 965.03 478.74 971.46 477.14 976.07 473.03 C 986.29 463.95 987.11 446.27 977.58 436.41 C 968.60 427.26 952.95 426.24 942.60 433.62 M 1023.64 432.57 C 1019.11 435.31 1016.37 440.73 1017.06 446.01 C 1017.29 450.32 1020.32 454.07 1024.12 455.91 C 1029.34 458.50 1035.29 458.45 1040.94 459.21 C 1043.17 459.51 1045.72 460.18 1046.88 462.33 C 1047.00 463.41 1046.91 464.47 1046.61 465.52 C 1043.78 468.66 1039.03 468.90 1035.18 467.90 C 1032.37 467.35 1030.96 464.64 1029.46 462.52 C 1025.72 462.07 1021.96 462.15 1018.22 462.31 C 1018.27 465.28 1017.67 468.75 1019.84 471.17 C 1024.80 476.80 1032.69 478.80 1039.97 478.42 C 1047.23 478.41 1055.21 475.44 1058.94 468.86 C 1060.98 465.53 1061.26 461.35 1060.27 457.64 C 1059.14 453.87 1055.87 451.14 1052.30 449.78 C 1046.60 447.46 1040.33 447.76 1034.42 446.49 C 1032.46 446.08 1030.16 444.49 1031.02 442.21 C 1032.52 438.19 1037.58 438.60 1041.06 438.88 C 1044.03 438.88 1045.57 441.96 1048.17 442.83 C 1051.47 443.35 1054.84 443.01 1058.17 442.90 C 1058.26 440.52 1058.85 437.81 1057.26 435.78 C 1054.49 432.06 1049.89 430.36 1045.51 429.47 C 1038.18 427.99 1030.03 428.34 1023.64 432.57 M 1104.01 440.03 C 1098.15 449.18 1099.18 461.83 1105.53 470.46 C 1110.37 477.00 1119.21 479.40 1127.00 478.13 C 1131.39 477.46 1134.80 474.41 1138.49 472.20 C 1138.69 473.69 1138.88 475.18 1139.08 476.69 C 1143.28 476.82 1147.49 476.81 1151.71 476.70 C 1151.81 470.11 1151.68 463.53 1151.73 456.95 C 1151.64 451.17 1151.48 444.91 1147.98 440.03 C 1143.11 432.41 1133.87 428.38 1124.98 428.82 C 1116.69 428.64 1108.40 432.97 1104.01 440.03 M 576.10 430.31 C 575.86 432.18 575.63 434.07 575.62 435.97 C 575.68 447.65 575.72 459.34 575.61 471.03 C 575.61 472.93 575.81 474.83 576.01 476.73 C 580.67 476.79 585.33 476.80 589.99 476.73 C 590.64 471.84 590.27 466.91 590.33 462.01 C 590.35 453.66 590.27 445.32 590.39 436.99 C 590.42 434.74 590.19 432.51 589.90 430.30 C 585.30 430.28 580.70 430.28 576.10 430.31 M 993.31 430.31 C 993.35 445.77 993.37 461.23 993.30 476.69 C 998.14 476.78 1002.99 476.78 1007.84 476.76 C 1008.24 468.84 1007.89 460.92 1008.00 453.00 C 1007.88 445.42 1008.29 437.84 1007.77 430.28 C 1002.95 430.30 998.12 430.30 993.31 430.31 Z" />
<path fill="#43a2a8" opacity="1.00" d=" M 289.44 440.43 C 293.80 438.67 299.51 439.76 302.31 443.72 C 303.90 445.73 304.46 448.27 304.95 450.73 C 297.64 451.21 290.28 451.11 282.96 450.82 C 283.68 446.73 285.50 442.33 289.44 440.43 Z" />
<path fill="#43a2a8" opacity="1.00" d=" M 730.96 442.00 C 733.80 439.28 738.19 439.20 741.77 440.24 C 745.86 441.97 748.57 446.45 748.26 450.89 C 741.12 451.10 733.98 451.11 726.85 450.88 C 727.36 447.62 728.42 444.26 730.96 442.00 Z" />
<path fill="#43a2a8" opacity="1.00" d=" M 484.45 441.51 C 490.01 440.10 496.25 443.67 497.82 449.19 C 498.98 453.60 498.58 458.87 495.38 462.37 C 491.22 467.18 482.77 467.19 478.62 462.37 C 475.58 458.79 474.94 453.62 476.17 449.19 C 477.26 445.36 480.60 442.37 484.45 441.51 Z" />
<path fill="#43a2a8" opacity="1.00" d=" M 895.45 441.50 C 901.00 440.17 907.15 443.86 908.69 449.33 C 910.06 454.10 909.30 460.02 905.23 463.29 C 900.95 467.21 893.41 466.81 889.65 462.35 C 886.62 459.10 886.08 454.26 886.95 450.06 C 887.80 445.87 891.32 442.46 895.45 441.50 Z" />
<path fill="#43a2a8" opacity="1.00" d=" M 1123.45 441.50 C 1129.00 440.17 1135.14 443.85 1136.69 449.33 C 1138.06 454.10 1137.29 460.02 1133.23 463.29 C 1128.94 467.20 1121.41 466.81 1117.65 462.35 C 1114.62 459.10 1114.09 454.26 1114.95 450.06 C 1115.79 445.86 1119.32 442.46 1123.45 441.50 Z" />
<path fill="#43a2a8" opacity="1.00" d=" M 162.36 442.18 C 166.61 440.91 172.04 441.28 175.01 445.00 C 177.55 447.67 178.29 451.48 178.00 455.06 C 177.97 461.08 172.16 466.70 166.05 465.93 C 159.97 465.83 154.92 459.99 155.20 454.03 C 154.98 449.16 157.64 443.93 162.36 442.18 Z" />
<path fill="#43a2a8" opacity="1.00" d=" M 346.45 442.43 C 350.71 440.95 356.24 441.02 359.54 444.51 C 363.42 448.23 363.92 454.39 362.12 459.23 C 360.29 462.57 357.06 465.71 353.06 465.89 C 349.38 466.05 345.31 465.02 342.93 462.02 C 337.87 456.26 339.38 445.87 346.45 442.43 Z" />
<path fill="#43a2a8" opacity="1.00" d=" M 620.45 442.41 C 624.67 440.89 630.18 441.10 633.40 444.62 C 639.16 450.25 637.68 461.70 630.10 465.03 C 626.33 466.48 621.54 466.44 618.42 463.58 C 611.79 458.33 612.60 446.10 620.45 442.41 Z" />
<path fill="#43a2a8" opacity="1.00" d=" M 954.36 442.16 C 957.56 441.21 961.23 441.26 964.27 442.77 C 971.24 446.79 971.97 457.82 966.11 463.12 C 961.97 467.30 954.41 466.77 950.52 462.51 C 944.74 456.83 946.56 445.09 954.36 442.16 Z" />
</g>
<g id="#ffffffff">
<path fill="#ffffff" opacity="1.00" d=" M 652.39 96.49 C 657.28 95.08 663.12 96.66 666.03 100.99 C 667.98 103.55 668.13 106.89 668.18 109.97 C 668.13 161.33 668.21 212.69 668.15 264.05 C 668.59 270.30 663.43 276.49 657.00 276.37 C 651.69 277.04 645.91 274.00 644.25 268.77 C 643.32 264.92 643.68 260.92 643.63 257.00 C 643.70 207.33 643.59 157.65 643.68 107.98 C 643.42 102.64 647.28 97.78 652.39 96.49 Z" />
<path fill="#ffffff" opacity="1.00" d=" M 747.42 96.56 C 751.81 95.37 757.17 96.11 760.28 99.72 C 762.96 102.42 763.66 106.35 763.67 110.02 C 763.65 157.68 763.66 205.34 763.66 253.00 C 763.62 257.43 763.93 261.88 763.34 266.29 C 762.83 270.50 759.97 274.60 755.80 275.81 C 751.17 277.04 745.52 276.63 742.21 272.78 C 739.17 270.08 738.79 265.83 738.81 262.01 C 738.79 211.67 738.82 161.33 738.79 110.99 C 738.86 108.52 738.85 105.97 739.69 103.61 C 740.92 100.18 744.02 97.69 747.42 96.56 Z" />
<path fill="#ffffff" opacity="1.00" d=" M 985.45 101.49 C 988.13 100.45 991.13 100.46 993.95 100.98 C 998.42 101.82 1002.01 105.85 1002.50 110.35 C 1002.90 113.89 1002.66 117.46 1002.68 121.01 C 1002.65 179.34 1002.70 237.67 1002.66 296.00 C 1002.78 302.26 1002.54 308.65 1004.19 314.75 C 1006.15 321.76 1009.87 328.89 1016.49 332.49 C 1022.63 335.53 1029.82 332.61 1036.14 334.90 C 1041.70 337.32 1043.29 344.40 1041.93 349.84 C 1040.47 354.94 1035.23 358.39 1030.01 358.30 C 1022.41 358.55 1014.44 358.81 1007.35 355.61 C 995.38 350.58 986.75 339.61 982.36 327.64 C 979.35 319.11 978.04 310.03 978.10 301.00 C 978.09 241.34 978.10 181.67 978.09 122.00 C 978.12 118.07 977.86 114.11 978.39 110.20 C 978.91 106.28 981.87 102.99 985.45 101.49 Z" />
<path fill="#ffffff" opacity="1.00" d=" M 1079.34 101.30 C 1084.31 99.76 1090.62 100.68 1093.78 105.20 C 1096.70 108.80 1095.95 113.71 1096.06 118.01 C 1095.99 177.67 1096.05 237.34 1096.03 297.00 C 1096.09 304.65 1095.95 312.64 1099.17 319.76 C 1101.48 325.28 1105.31 330.54 1110.97 332.95 C 1117.23 335.38 1124.44 332.32 1130.54 335.44 C 1135.19 338.56 1136.91 345.05 1135.17 350.25 C 1133.30 354.69 1128.92 358.16 1124.00 358.27 C 1116.90 358.52 1109.51 358.91 1102.75 356.35 C 1091.87 352.66 1083.48 343.70 1078.29 333.70 C 1072.81 322.35 1070.90 309.51 1071.34 297.00 C 1071.35 238.66 1071.35 180.33 1071.34 122.00 C 1071.39 117.94 1070.98 113.83 1071.79 109.82 C 1072.60 105.92 1075.44 102.43 1079.34 101.30 Z" />
<path fill="#ffffff" opacity="1.00" d=" M 901.33 108.25 C 904.44 107.42 907.74 107.38 910.92 107.89 C 917.13 108.92 922.34 113.86 924.11 119.84 C 925.74 125.79 924.47 132.62 920.22 137.21 C 915.48 142.60 907.40 144.47 900.67 142.20 C 893.68 139.65 888.66 132.49 889.02 124.99 C 888.67 117.43 894.08 110.27 901.33 108.25 Z" />
<path fill="#ffffff" opacity="1.00" d=" M 574.38 168.43 C 580.05 166.66 586.52 169.90 588.64 175.39 C 589.73 179.15 589.29 183.13 589.36 187.00 C 589.30 229.68 589.39 272.35 589.31 315.03 C 589.38 318.86 589.58 322.96 591.78 326.25 C 594.14 329.72 597.80 332.57 602.06 333.10 C 606.35 333.61 610.69 333.29 615.00 333.34 C 677.34 333.34 739.68 333.33 802.01 333.35 C 810.27 333.82 817.75 326.26 817.33 318.04 C 817.31 275.36 817.33 232.68 817.32 190.01 C 817.35 185.91 817.03 181.78 817.69 177.72 C 818.49 172.38 823.50 167.83 828.99 168.02 C 834.44 167.73 839.70 171.82 840.69 177.20 C 841.29 181.10 840.94 185.07 841.00 189.00 C 840.98 229.67 841.00 270.33 840.99 311.00 C 840.99 317.41 841.49 324.03 839.23 330.17 C 834.53 345.59 819.22 357.11 803.04 356.98 C 736.68 356.99 670.31 356.99 603.95 356.98 C 595.21 357.02 586.64 353.63 579.90 348.14 C 571.35 341.08 565.87 330.20 565.97 319.04 C 565.92 275.69 565.97 232.34 565.95 189.00 C 565.96 185.34 565.76 181.67 566.13 178.03 C 566.49 173.51 570.09 169.64 574.38 168.43 Z" />
<path fill="#ffffff" opacity="1.00" d=" M 116.44 176.65 C 120.93 175.84 125.53 175.84 130.08 176.04 C 134.82 176.23 139.85 178.41 142.19 182.73 C 145.03 188.84 143.08 197.66 136.30 200.21 C 130.07 201.67 123.18 199.20 117.27 202.34 C 111.11 205.69 107.51 212.23 105.58 218.75 C 104.03 223.33 103.91 228.22 103.93 233.01 C 103.94 269.36 103.91 305.70 103.95 342.05 C 103.76 346.60 103.89 351.95 100.34 355.36 C 97.43 358.35 92.95 358.79 89.01 358.27 C 84.67 357.86 80.93 354.46 79.70 350.35 C 78.95 346.62 79.39 342.77 79.33 338.99 C 79.33 306.66 79.33 274.33 79.33 242.00 C 79.32 232.50 79.01 222.84 81.50 213.58 C 84.10 202.26 90.29 191.68 99.32 184.32 C 104.22 180.28 110.29 177.95 116.44 176.65 Z" />
<path fill="#ffffff" opacity="1.00" d=" M 903.37 178.43 C 908.06 177.26 913.60 178.40 916.62 182.41 C 919.14 185.32 919.22 189.35 919.24 192.99 C 919.14 244.01 919.25 295.04 919.18 346.05 C 919.11 351.11 916.21 356.90 910.90 358.07 C 906.68 358.82 901.68 358.75 898.42 355.58 C 895.35 352.98 894.25 348.86 894.32 344.98 C 894.36 296.99 894.34 248.99 894.34 201.00 C 894.39 196.59 894.02 192.14 894.70 187.76 C 895.38 183.28 899.04 179.55 903.37 178.43 Z" />
<path fill="#ffffff" opacity="1.00" d=" M 1156.36 178.39 C 1159.67 177.46 1163.59 177.40 1166.49 179.51 C 1168.50 180.91 1169.71 183.12 1170.78 185.26 C 1191.92 230.04 1213.24 274.74 1234.47 319.45 C 1234.79 319.51 1235.43 319.63 1235.75 319.68 C 1237.47 316.63 1238.69 313.32 1240.18 310.14 C 1258.62 269.61 1276.94 229.00 1295.40 188.48 C 1297.00 184.99 1298.36 180.92 1301.91 178.92 C 1305.54 176.98 1310.02 177.76 1313.63 179.41 C 1316.77 180.82 1319.76 183.45 1320.18 187.06 C 1320.65 191.79 1318.01 196.02 1316.14 200.17 C 1289.15 259.50 1262.23 318.87 1235.13 378.16 C 1227.45 395.13 1219.67 412.05 1212.08 429.05 C 1210.54 432.31 1208.66 436.14 1204.84 437.07 C 1200.21 438.01 1195.22 436.36 1191.71 433.28 C 1188.27 430.21 1188.38 424.91 1190.02 420.95 C 1200.53 397.78 1210.88 374.53 1221.44 351.38 C 1221.89 350.26 1222.38 349.14 1222.64 347.96 C 1222.20 345.55 1220.89 343.42 1219.88 341.22 C 1199.64 299.40 1179.49 257.54 1159.26 215.71 C 1156.44 210.17 1154.17 204.37 1151.16 198.92 C 1149.17 195.31 1147.31 191.29 1147.97 187.05 C 1148.37 182.63 1152.42 179.64 1156.36 178.39 Z" />
<path fill="#ffffff" opacity="1.00" d=" M 196.43 179.46 C 200.97 178.72 206.09 180.31 208.78 184.21 C 210.80 186.64 211.03 189.92 211.05 192.95 C 211.00 220.63 211.05 248.32 211.02 276.00 C 211.04 279.70 210.98 283.41 211.24 287.11 C 211.53 291.70 213.08 296.08 214.53 300.41 C 218.84 313.01 227.83 324.12 239.70 330.29 C 247.06 334.39 255.72 335.56 264.03 334.91 C 274.90 333.91 285.17 328.52 292.61 320.61 C 302.86 309.81 308.52 294.84 308.32 279.98 C 308.33 250.99 308.34 222.00 308.31 193.01 C 308.32 189.36 309.02 185.40 311.77 182.77 C 315.04 179.20 320.60 178.23 324.99 180.10 C 328.37 181.91 331.44 185.08 331.87 189.04 C 332.29 193.01 332.02 197.01 332.06 201.00 C 332.06 227.67 332.04 254.34 332.07 281.01 C 331.81 288.96 330.94 296.96 328.48 304.55 C 321.82 326.93 305.02 346.76 282.78 354.74 C 269.38 359.83 254.41 360.05 240.66 356.24 C 224.83 351.47 211.03 340.83 201.74 327.23 C 193.15 314.86 188.37 300.04 187.30 285.09 C 186.79 260.39 187.19 235.69 187.06 211.00 C 187.16 204.32 186.86 197.63 187.18 190.95 C 187.23 185.62 191.25 180.66 196.43 179.46 Z" />
<path fill="#ffffff" opacity="1.00" d=" M 438.42 179.58 C 455.55 177.52 473.29 182.56 486.98 193.00 C 507.96 208.56 519.62 235.10 518.67 261.00 C 518.66 289.67 518.64 318.35 518.68 347.01 C 518.79 353.52 512.64 359.63 506.04 358.95 C 499.95 358.76 494.84 353.08 495.00 347.03 C 494.88 320.69 494.99 294.34 494.96 268.00 C 494.89 261.06 495.30 254.03 493.89 247.19 C 491.75 235.84 486.60 224.85 478.24 216.76 C 473.76 212.38 468.73 208.37 462.77 206.24 C 450.39 201.00 435.52 202.05 424.02 209.03 C 413.47 215.05 405.76 225.20 401.39 236.42 C 397.91 244.80 397.33 254.01 397.33 262.98 C 397.39 290.32 397.27 317.66 397.38 345.01 C 397.31 347.70 397.35 350.59 395.90 352.98 C 393.65 356.67 389.40 359.21 385.02 358.95 C 380.95 358.84 377.26 356.28 375.17 352.89 C 373.74 350.53 373.79 347.67 373.69 345.02 C 373.74 316.02 373.69 287.01 373.71 258.01 C 373.89 238.83 380.32 219.53 392.80 204.82 C 404.20 191.18 420.66 181.62 438.42 179.58 Z" />
<path fill="#ffffff" opacity="1.00" d=" M 579.41 409.44 C 582.73 408.10 587.06 408.65 589.39 411.56 C 592.17 414.67 591.80 419.93 588.70 422.69 C 585.13 426.07 578.49 425.37 575.94 421.07 C 573.35 417.14 575.05 411.26 579.41 409.44 Z" />
<path fill="#ffffff" opacity="1.00" d=" M 997.38 409.37 C 1001.39 407.69 1006.63 409.45 1008.50 413.45 C 1009.40 416.50 1009.20 420.41 1006.58 422.59 C 1003.07 426.12 996.48 425.33 993.75 421.23 C 991.32 417.25 992.62 410.92 997.38 409.37 Z" />
<path fill="#ffffff" opacity="1.00" d=" M 117.30 410.11 C 122.08 409.38 126.95 409.39 131.74 410.01 C 131.69 432.24 131.75 454.48 131.71 476.71 C 126.91 476.79 122.10 476.79 117.30 476.69 C 117.37 454.50 117.37 432.30 117.30 410.11 Z" />
<path fill="#ffffff" opacity="1.00" d=" M 362.28 410.23 C 367.10 409.84 371.94 409.84 376.76 410.17 C 376.69 424.79 376.73 439.42 376.73 454.04 C 376.75 459.14 375.95 464.52 372.68 468.62 C 367.28 476.46 357.03 479.19 347.97 478.23 C 338.16 477.42 329.09 470.24 326.57 460.64 C 324.91 453.82 325.56 446.27 329.14 440.16 C 333.55 432.24 343.12 427.86 352.01 428.95 C 355.70 429.31 358.93 431.25 362.19 432.87 C 362.59 425.33 362.24 417.78 362.28 410.23 M 346.45 442.43 C 339.38 445.87 337.87 456.26 342.93 462.02 C 345.31 465.02 349.38 466.05 353.06 465.89 C 357.06 465.71 360.29 462.57 362.12 459.23 C 363.92 454.39 363.42 448.23 359.54 444.51 C 356.24 441.02 350.71 440.95 346.45 442.43 Z" />
<path fill="#ffffff" opacity="1.00" d=" M 661.30 410.11 C 666.08 409.38 670.94 409.40 675.74 410.02 C 675.70 432.24 675.74 454.48 675.71 476.70 C 670.90 476.79 666.10 476.80 661.29 476.70 C 661.38 454.50 661.37 432.30 661.30 410.11 Z" />
<path fill="#ffffff" opacity="1.00" d=" M 1070.90 420.92 C 1075.55 420.48 1080.23 420.47 1084.90 420.91 C 1084.92 424.17 1085.09 427.44 1085.23 430.71 C 1088.51 430.59 1091.80 430.67 1095.10 430.83 C 1095.48 434.24 1095.48 437.69 1095.10 441.11 C 1091.80 441.28 1088.50 441.38 1085.20 441.29 C 1084.86 447.20 1084.90 453.13 1085.03 459.04 C 1085.01 461.60 1085.89 464.50 1088.43 465.61 C 1090.82 465.98 1093.26 465.56 1095.66 465.35 C 1095.79 469.35 1095.81 473.36 1095.43 477.36 C 1090.78 478.31 1085.90 478.95 1081.23 477.84 C 1075.68 476.13 1071.41 470.83 1070.99 465.01 C 1070.22 457.18 1070.91 449.31 1070.68 441.46 C 1068.55 441.30 1066.44 441.09 1064.34 440.88 C 1064.22 437.39 1064.22 433.89 1064.33 430.40 C 1066.45 430.42 1068.56 430.21 1070.68 429.97 C 1070.59 426.95 1070.77 423.93 1070.90 420.92 Z" />
<path fill="#ffffff" opacity="1.00" d=" M 154.36 431.41 C 159.16 428.91 164.75 428.49 170.06 428.97 C 178.78 429.69 187.05 435.30 190.51 443.40 C 192.73 448.62 192.73 454.41 192.68 459.99 C 192.58 465.55 192.74 471.12 192.69 476.68 C 188.26 476.81 183.84 476.83 179.41 476.66 C 179.26 475.16 179.12 473.67 178.95 472.19 C 175.81 474.41 172.78 477.12 168.89 477.91 C 162.65 479.12 155.68 478.45 150.47 474.52 C 143.88 469.58 140.46 461.09 141.01 452.95 C 140.80 443.97 146.27 435.26 154.36 431.41 M 162.36 442.18 C 157.64 443.93 154.98 449.16 155.20 454.03 C 154.92 459.99 159.97 465.83 166.05 465.93 C 172.16 466.70 177.97 461.08 178.00 455.06 C 178.29 451.48 177.55 447.67 175.01 445.00 C 172.04 441.28 166.61 440.91 162.36 442.18 Z" />
<path fill="#ffffff" opacity="1.00" d=" M 244.01 434.99 C 246.96 432.39 250.02 429.38 254.16 428.99 C 257.91 428.49 262.74 428.74 265.05 432.21 C 265.78 436.48 265.41 440.84 265.13 445.14 C 263.18 445.17 261.13 445.76 259.25 445.04 C 257.59 443.95 256.19 442.51 254.49 441.49 C 250.75 440.31 246.65 442.86 245.37 446.41 C 243.90 450.43 244.36 454.80 244.30 459.00 C 244.21 464.91 244.72 470.84 243.99 476.73 C 239.38 476.78 234.77 476.79 230.16 476.76 C 229.76 467.18 230.11 457.58 230.00 448.00 C 230.06 442.09 229.77 436.18 230.22 430.28 C 234.67 430.28 239.13 430.29 243.58 430.32 C 243.71 431.87 243.85 433.43 244.01 434.99 Z" />
<path fill="#ffffff" opacity="1.00" d=" M 276.30 435.28 C 282.54 429.47 291.73 427.79 299.95 429.21 C 307.51 430.46 314.15 435.91 317.04 442.98 C 319.32 447.99 319.15 453.63 318.75 458.99 C 307.21 459.85 295.61 459.03 284.05 459.34 C 285.12 464.94 291.12 468.93 296.70 467.57 C 299.99 467.23 302.15 464.54 304.69 462.76 C 308.29 461.81 312.09 462.38 315.77 462.32 C 315.71 465.00 316.33 468.15 314.28 470.29 C 309.60 475.87 302.10 478.41 294.97 478.41 C 288.70 478.42 282.08 476.98 277.22 472.81 C 272.22 468.31 268.68 461.87 268.75 455.03 C 268.22 447.74 270.73 440.17 276.30 435.28 M 289.44 440.43 C 285.50 442.33 283.68 446.73 282.96 450.82 C 290.28 451.11 297.64 451.21 304.95 450.73 C 304.46 448.27 303.90 445.73 302.31 443.72 C 299.51 439.76 293.80 438.67 289.44 440.43 Z" />
<path fill="#ffffff" opacity="1.00" d=" M 418.39 432.39 C 428.20 426.94 441.67 427.17 450.55 434.39 C 453.19 436.36 452.77 439.90 452.87 442.80 C 449.33 443.01 445.74 443.39 442.22 442.78 C 440.06 441.65 438.54 439.29 435.98 439.00 C 432.83 438.56 429.07 438.34 426.54 440.62 C 425.29 441.58 425.39 443.23 425.19 444.63 C 429.16 447.73 434.46 446.90 439.11 447.93 C 444.03 448.91 449.65 449.86 452.88 454.13 C 456.82 459.52 455.71 467.44 451.09 472.08 C 446.17 477.04 438.79 478.56 432.03 478.42 C 425.19 478.44 417.98 475.82 413.68 470.33 C 411.82 468.09 412.33 465.02 412.21 462.34 C 416.25 462.19 420.30 462.03 424.33 462.51 C 425.51 464.63 426.75 467.14 429.35 467.76 C 433.10 468.85 438.17 468.98 440.78 465.56 C 442.44 462.97 440.21 460.08 437.55 459.58 C 430.49 458.22 422.59 458.88 416.38 454.67 C 408.95 449.27 410.53 436.62 418.39 432.39 Z" />
<path fill="#ffffff" opacity="1.00" d=" M 479.37 429.60 C 485.35 428.13 491.67 428.91 497.52 430.60 C 507.41 434.06 513.60 444.74 512.78 455.02 C 512.78 464.98 505.67 474.43 496.06 477.11 C 486.75 479.78 475.61 478.50 468.38 471.61 C 461.04 464.70 459.38 453.17 462.92 443.97 C 465.62 436.87 471.99 431.36 479.37 429.60 M 484.45 441.51 C 480.60 442.37 477.26 445.36 476.17 449.19 C 474.94 453.62 475.58 458.79 478.62 462.37 C 482.77 467.19 491.22 467.18 495.38 462.37 C 498.58 458.87 498.98 453.60 497.82 449.19 C 496.25 443.67 490.01 440.10 484.45 441.51 Z" />
<path fill="#ffffff" opacity="1.00" d=" M 525.19 437.19 C 531.53 429.75 542.34 427.25 551.63 429.49 C 557.19 431.09 562.78 434.29 565.53 439.59 C 566.79 441.89 566.34 444.58 566.20 447.08 C 562.86 447.33 559.47 447.75 556.16 447.12 C 553.74 445.52 552.38 442.57 549.59 441.49 C 546.07 440.24 541.84 440.53 538.79 442.79 C 531.48 447.95 532.23 460.60 539.76 465.19 C 542.50 466.71 545.86 466.62 548.82 465.89 C 552.14 465.15 553.63 461.75 556.18 459.87 C 559.48 459.26 562.85 459.67 566.17 459.92 C 566.54 463.45 566.89 467.47 564.36 470.36 C 559.13 476.91 550.01 478.95 542.00 478.33 C 532.30 477.97 523.29 470.92 520.53 461.65 C 518.51 453.40 519.48 443.82 525.19 437.19 Z" />
<path fill="#ffffff" opacity="1.00" d=" M 616.72 429.91 C 625.64 427.34 635.78 429.06 643.04 434.97 C 647.04 438.35 649.70 443.20 650.67 448.33 C 651.52 452.83 651.35 457.44 651.34 462.00 C 651.25 466.91 651.65 471.84 651.00 476.73 C 646.76 476.80 642.52 476.82 638.28 476.72 C 638.13 475.16 637.97 473.60 637.81 472.05 C 634.69 474.25 631.77 477.09 627.91 477.89 C 621.18 479.23 613.61 478.33 608.24 473.76 C 598.83 465.95 597.33 451.39 602.94 440.93 C 605.98 435.73 611.09 431.92 616.72 429.91 M 620.45 442.41 C 612.60 446.10 611.79 458.33 618.42 463.58 C 621.54 466.44 626.33 466.48 630.10 465.03 C 637.68 461.70 639.16 450.25 633.40 444.62 C 630.18 441.10 624.67 440.89 620.45 442.41 Z" />
<path fill="#ffffff" opacity="1.00" d=" M 720.15 435.15 C 727.69 428.54 738.93 427.04 748.18 430.65 C 755.19 433.18 760.37 439.61 762.11 446.76 C 763.02 450.74 762.80 454.86 762.69 458.91 C 751.15 459.93 739.54 459.00 727.98 459.34 C 728.78 466.94 739.14 470.32 744.86 465.80 C 746.13 464.80 747.26 463.64 748.59 462.71 C 752.25 461.86 756.08 462.36 759.82 462.35 C 759.72 465.00 759.96 467.98 758.10 470.13 C 754.00 475.26 747.48 478.04 741.00 478.31 C 733.33 479.02 725.12 476.99 719.52 471.48 C 710.07 461.91 709.97 444.24 720.15 435.15 M 730.96 442.00 C 728.42 444.26 727.36 447.62 726.85 450.88 C 733.98 451.11 741.12 451.10 748.26 450.89 C 748.57 446.45 745.86 441.97 741.77 440.24 C 738.19 439.20 733.80 439.28 730.96 442.00 Z" />
<path fill="#ffffff" opacity="1.00" d=" M 771.87 435.88 C 775.38 431.80 780.64 429.42 785.96 428.92 C 792.38 428.10 799.01 429.31 804.83 432.13 C 807.01 433.22 809.09 434.87 810.02 437.21 C 810.63 439.05 810.22 441.01 810.17 442.91 C 806.84 443.02 803.47 443.35 800.17 442.83 C 797.81 442.09 796.46 439.47 793.97 439.02 C 790.77 438.51 787.10 438.38 784.35 440.36 C 782.95 441.26 782.52 443.12 783.18 444.62 C 785.15 446.78 788.28 446.85 790.99 447.23 C 797.08 447.85 803.65 448.43 808.65 452.34 C 813.31 455.99 813.97 463.14 811.28 468.15 C 808.10 474.53 800.90 478.00 794.00 478.31 C 786.13 479.01 777.24 477.44 771.85 471.17 C 769.67 468.75 770.28 465.28 770.21 462.31 C 773.96 462.16 777.72 462.07 781.47 462.52 C 782.52 464.08 783.55 465.71 784.99 466.95 C 787.65 468.52 790.95 468.64 793.94 468.17 C 796.18 467.80 798.49 466.24 798.86 463.87 C 799.57 461.67 797.12 460.26 795.36 459.74 C 789.21 458.25 782.61 458.81 776.72 456.26 C 773.47 454.78 770.53 452.12 769.50 448.62 C 768.44 444.32 768.88 439.35 771.87 435.88 Z" />
<path fill="#ffffff" opacity="1.00" d=" M 823.04 439.05 C 829.05 430.19 841.17 426.80 851.22 429.71 C 856.42 431.11 861.46 434.04 864.29 438.76 C 865.87 441.25 865.39 444.30 865.24 447.09 C 861.91 447.30 858.50 447.80 855.21 447.05 C 853.14 445.40 851.64 443.05 849.28 441.78 C 844.57 439.47 838.43 441.21 835.43 445.45 C 831.99 450.13 832.51 456.80 835.30 461.66 C 838.30 466.50 845.21 467.68 850.03 465.02 C 852.03 463.61 853.56 461.66 855.16 459.85 C 858.50 459.45 861.86 459.57 865.20 459.92 C 865.50 463.71 866.17 468.24 863.09 471.15 C 856.63 478.34 846.08 479.45 837.06 477.79 C 828.68 475.84 821.54 469.05 819.54 460.63 C 817.86 453.39 818.53 445.19 823.04 439.05 Z" />
<path fill="#ffffff" opacity="1.00" d=" M 873.20 446.13 C 875.67 437.55 883.25 430.79 892.04 429.25 C 897.95 428.36 904.24 428.68 909.72 431.27 C 915.20 433.72 919.70 438.30 922.01 443.84 C 923.77 448.67 923.70 453.91 923.74 458.98 C 923.66 464.89 923.83 470.79 923.71 476.70 C 919.49 476.81 915.28 476.82 911.07 476.69 C 910.88 475.18 910.69 473.68 910.49 472.19 C 907.06 474.25 903.96 477.17 899.92 477.96 C 892.78 479.34 884.71 477.80 879.40 472.59 C 872.69 465.78 870.69 455.19 873.20 446.13 M 895.45 441.50 C 891.32 442.46 887.80 445.87 886.95 450.06 C 886.08 454.26 886.62 459.10 889.65 462.35 C 893.41 466.81 900.95 467.21 905.23 463.29 C 909.30 460.02 910.06 454.10 908.69 449.33 C 907.15 443.86 901.00 440.17 895.45 441.50 Z" />
<path fill="#ffffff" opacity="1.00" d=" M 942.60 433.62 C 952.95 426.24 968.60 427.26 977.58 436.41 C 987.11 446.27 986.29 463.95 976.07 473.03 C 971.46 477.14 965.03 478.74 958.96 478.35 C 954.90 478.22 951.46 475.87 947.94 474.13 C 947.40 481.98 947.93 489.84 947.69 497.70 C 942.90 497.70 938.10 497.70 933.31 497.69 C 933.34 484.46 933.37 471.23 933.33 458.00 C 933.35 453.74 932.94 449.34 934.34 445.24 C 935.87 440.68 938.53 436.33 942.60 433.62 M 954.36 442.16 C 946.56 445.09 944.74 456.83 950.52 462.51 C 954.41 466.77 961.97 467.30 966.11 463.12 C 971.97 457.82 971.24 446.79 964.27 442.77 C 961.23 441.26 957.56 441.21 954.36 442.16 Z" />
<path fill="#ffffff" opacity="1.00" d=" M 1023.64 432.57 C 1030.03 428.34 1038.18 427.99 1045.51 429.47 C 1049.89 430.36 1054.49 432.06 1057.26 435.78 C 1058.85 437.81 1058.26 440.52 1058.17 442.90 C 1054.84 443.01 1051.47 443.35 1048.17 442.83 C 1045.57 441.96 1044.03 438.88 1041.06 438.88 C 1037.58 438.60 1032.52 438.19 1031.02 442.21 C 1030.16 444.49 1032.46 446.08 1034.42 446.49 C 1040.33 447.76 1046.60 447.46 1052.30 449.78 C 1055.87 451.14 1059.14 453.87 1060.27 457.64 C 1061.26 461.35 1060.98 465.53 1058.94 468.86 C 1055.21 475.44 1047.23 478.41 1039.97 478.42 C 1032.69 478.80 1024.80 476.80 1019.84 471.17 C 1017.67 468.75 1018.27 465.28 1018.22 462.31 C 1021.96 462.15 1025.72 462.07 1029.46 462.52 C 1030.96 464.64 1032.37 467.35 1035.18 467.90 C 1039.03 468.90 1043.78 468.66 1046.61 465.52 C 1046.91 464.47 1047.00 463.41 1046.88 462.33 C 1045.72 460.18 1043.17 459.51 1040.94 459.21 C 1035.29 458.45 1029.34 458.50 1024.12 455.91 C 1020.32 454.07 1017.29 450.32 1017.06 446.01 C 1016.37 440.73 1019.11 435.31 1023.64 432.57 Z" />
<path fill="#ffffff" opacity="1.00" d=" M 1104.01 440.03 C 1108.40 432.97 1116.69 428.64 1124.98 428.82 C 1133.87 428.38 1143.11 432.41 1147.98 440.03 C 1151.48 444.91 1151.64 451.17 1151.73 456.95 C 1151.68 463.53 1151.81 470.11 1151.71 476.70 C 1147.49 476.81 1143.28 476.82 1139.08 476.69 C 1138.88 475.18 1138.69 473.69 1138.49 472.20 C 1134.80 474.41 1131.39 477.46 1127.00 478.13 C 1119.21 479.40 1110.37 477.00 1105.53 470.46 C 1099.18 461.83 1098.15 449.18 1104.01 440.03 M 1123.45 441.50 C 1119.32 442.46 1115.79 445.86 1114.95 450.06 C 1114.09 454.26 1114.62 459.10 1117.65 462.35 C 1121.41 466.81 1128.94 467.20 1133.23 463.29 C 1137.29 460.02 1138.06 454.10 1136.69 449.33 C 1135.14 443.85 1129.00 440.17 1123.45 441.50 Z" />
<path fill="#ffffff" opacity="1.00" d=" M 576.10 430.31 C 580.70 430.28 585.30 430.28 589.90 430.30 C 590.19 432.51 590.42 434.74 590.39 436.99 C 590.27 445.32 590.35 453.66 590.33 462.01 C 590.27 466.91 590.64 471.84 589.99 476.73 C 585.33 476.80 580.67 476.79 576.01 476.73 C 575.81 474.83 575.61 472.93 575.61 471.03 C 575.72 459.34 575.68 447.65 575.62 435.97 C 575.63 434.07 575.86 432.18 576.10 430.31 Z" />
<path fill="#ffffff" opacity="1.00" d=" M 993.31 430.31 C 998.12 430.30 1002.95 430.30 1007.77 430.28 C 1008.29 437.84 1007.88 445.42 1008.00 453.00 C 1007.89 460.92 1008.24 468.84 1007.84 476.76 C 1002.99 476.78 998.14 476.78 993.30 476.69 C 993.37 461.23 993.35 445.77 993.31 430.31 Z" />
</g>
</svg>
